<?xml version="1.0" encoding="utf-8"?>
<!-- Generator: Adobe Illustrator 23.0.1, SVG Export Plug-In . SVG Version: 6.00 Build 0)  -->
<svg version="1.1" xmlns="http://www.w3.org/2000/svg" xmlns:xlink="http://www.w3.org/1999/xlink" x="0px" y="0px"
	 viewBox="0 0 276 276" style="enable-background:new 0 0 276 276;" xml:space="preserve">
<style type="text/css">
	.st0{fill:#E3F3EF;stroke:#262262;stroke-width:3;stroke-miterlimit:10;}
	.st1{fill:#54499E;}
	.st2{fill:#5E499E;}
	.st3{fill:#60489B;}
	.st4{fill:#8C4398;}
	.st5{fill:#964294;}
	.st6{fill:#6D469C;}
	.st7{fill:#7A4A9E;}
	.st8{fill:#8C4893;}
	.st9{fill:#E22D92;}
	.st10{fill:#A34098;}
	.st11{fill:#D82D88;}
	.st12{fill:#68469C;}
	.st13{fill:#CA3A95;}
	.st14{fill:#CC348D;}
	.st15{fill:#7A449A;}
	.st16{fill:#B23B91;}
	.st17{fill:#78459B;}
	.st18{fill:#63469C;}
	.st19{fill:#EE1F38;}
	.st20{fill:#8B4299;}
	.st21{fill:#874399;}
	.st22{fill:#DB2E8D;}
	.st23{fill:#964198;}
	.st24{fill:#67469C;}
	.st25{fill:#A54098;}
	.st26{fill:#5F479C;}
	.st27{fill:#EE1E3F;}
	.st28{fill:#E5288D;}
	.st29{fill:#EC204D;}
	.st30{fill:#8F55A2;}
	.st31{fill:#914299;}
	.st32{fill:#F8DD51;}
	.st33{fill:#D23282;}
	.st34{fill:#9C4098;}
	.st35{fill:#794B9E;}
	.st36{fill:#794E9F;}
	.st37{fill:#EE2238;}
	.st38{fill:#D083A3;}
	.st39{fill:#B063A8;}
	.st40{fill:#DF9F96;}
	.st41{fill:#5D499E;}
	.st42{fill:#EE2334;}
	.st43{fill:#E8273E;}
	.st44{fill:#E12982;}
	.st45{fill:#D83192;}
	.st46{fill:#EB1C84;}
	.st47{fill:#BE3D96;}
	.st48{fill:#EC213C;}
	.st49{fill:#62479C;}
	.st50{fill:#A43E95;}
	.st51{fill:#ED1981;}
	.st52{fill:#EE1F43;}
	.st53{fill:#ED1C5E;}
	.st54{fill:#83439A;}
	.st55{fill:#EB1E62;}
	.st56{fill:#E82162;}
	.st57{fill:#EE1E4B;}
	.st58{fill:#7C449A;}
	.st59{fill:#CB3894;}
	.st60{fill:#DB2D8A;}
	.st61{fill:#ED2333;}
	.st62{fill:#ED1C5D;}
	.st63{fill:#7C4B9C;}
	.st64{fill:#E52386;}
	.st65{fill:#884D9D;}
	.st66{fill:#5F489D;}
	.st67{fill:#EE1E45;}
	.st68{fill:#E3298D;}
	.st69{fill:#ED1C59;}
	.st70{fill:#E72181;}
	.st71{fill:#E9B482;}
	.st72{fill:#E3A690;}
	.st73{fill:#E9218A;}
	.st74{fill:none;stroke:#000000;stroke-width:2;stroke-miterlimit:10;}
	.st75{fill:#808285;}
	.st76{fill:#BCBEC0;}
	.st77{fill:#939598;}
	.st78{display:none;}
	.st79{display:inline;}
	.st80{fill:#FFFFFF;}
	.st81{fill:#2B2B2B;}
	.st82{fill:#454545;}
</style>
<g id="Layer_2">
	<g>
		<circle class="st0" cx="137.82" cy="138" r="133.86"/>
		<g>
			<g>
				<path class="st1" d="M20.42,217.22c-10.9-0.69-10.51-6.37-9.81-10.9c1.21-7.86-0.15-15.04-1.2-22.32
					c-1.21-8.35,8.64-16.42,20.88-23.8c31.89-19.22,67.49-30.52,107.38-31.67c19.58-0.57,38.67-1.03,51.12,5.05
					c0.66,0.32,1.86,0.58,2.93,0.43c22.25-3.19,37.12,0.72,51.04,5.21c24.23,7.82,39.56,19.37,30.53,38.97
					c-5.37,11.66-14.54,23.62-41.8,31.64c-6.55,1.93-11.99,6.24-19.54,8.1c-1.53-0.04-2.84,0.35-3.94,1.21
					c-7.04,2.18-12.22,5.77-19.17,8.3c-8.69,3.16-15.99,4.52-23.57,4.04c-1.49-2.2-6.55-1.77-10.38-2.17
					c-5.54-0.57-3.69-2.06,0.79-4.12c4.33-0.88,9.59-0.75,12.46-3.62c2.6-2.6-1.54-3.21-4.04-4.17c2.03-3.82,7.46-3.16,11.62-4.17
					c0.83,0.49,1.67,0.98,2.51,1.47c6.29,0.72,12.35,1.99,20.65-2.2c5.76-0.92,10.85-3.02,14.56-5.66
					c5.37-3.81,10.5-7.66,16.94-11.13c7.81-1.41,14.92,0.09,22.9-3.2c0.43-5.48-13.06-5.78-8.84-12.43c5.34-7.1,4.07-11-3.82-11.73
					c-5.33-4.16-9.63-8.81-17.86-11.6c-4.66-5.29-17.32-6.28-22.79-11.25c-2.45-2.23-7.32,0.32-9.37,2.65
					c-3.07,3.49-8.26,5.97-13.73,8.48c-9.58,1.15-17.28,0.58-22.24-2.51c0,0,0.42-0.29,0.42-0.29c1.19-1.49,2.39-2.98,3.58-4.47
					c3.63-2.03,7.77-3.94,10.73-6.12c2.52-1.85,8.02-3.98,6.14-5.88c-2.29-2.32-7.7-0.05-11.82,1.36
					c-9.38,3.22-17.66,4.88-26.99,4.53c-17.53-0.66-36.36,1.11-56.17,8.5c-16.38,7.24-30.12,15.26-37.78,25.06
					c-4.92,4.15-7.38,8.26-8.75,12.35c-1.02,1.05-1.6,2.04-0.6,2.77c-0.94,5.09-2.6,10.48,10.83,9.56c0.74,0.04,1.48,0.08,2.21,0.11
					c1.41,0.13,2.82,0.26,4.22,0.39c4.37,0.53,2.15,2.41-0.05,4.3c-7.21,1.27-18.64,0.94-12.34,7.36
					C32.15,219.27,26.4,215.07,20.42,217.22z M132.2,133.64c-9.7,0.31-16.35-0.36-25.61,3.99
					C114.59,138.36,121.81,136.73,132.2,133.64z"/>
				<path class="st2" d="M93.43,220.23c-13.9,3.41-22.73-0.4-35.04,0.74c-2.62-1.54,0.57-2.66,3.7-3.78c2.34-0.67,4.67-1.34,7.01-2
					c3.95-0.36,5.86-1.58,6.16-3.5c5.03-0.83,8.42-2.64,8.26-4.99c-0.25-3.53,2.06-7.24,4.27-11c-0.43-0.35-0.86-0.7-1.28-1.05
					c7.86,0.54,9.26-3.47,12.95-5.91c1.96-1.3,3.93-3.09,7.06-3.05c2.43,0.03,0.42,1.61,0.33,2.51c-4.38,3.6-2.09,5.37,2.04,6.64
					c3.11-0.06,6.75-1.16,7.11-2.65c1.29-5.47,10.22-9.83,16.19-14.62c1.1,0.14,2.21,0.27,3.31,0.41c-3.33,3.08-3.76,5.9-4.1,8.72
					c-0.82,4.38-13.41,7.58-12.8,12.11c-2.27,1.81-3.17,3.56-3.25,5.27c-7.51,0.23-7.94,3.78-11.09,6.06
					c-4.2,1.1-5.22,3.22-7.61,4.89c-2.3,0.63-3.67,1.54-4.13,2.72c-0.9,1.27,1.32,0.87,2.31,1.13
					C94.35,219.32,93.89,219.78,93.43,220.23z"/>
				<path class="st3" d="M115.33,204.07c0.08-1.71,0.98-3.46,3.25-5.27c5.09,0.33,8.46-1.41,11.17-4.1
					c2.95-2.92,6.02-5.83,9.04-8.74l0.59-0.46c5.82,0.69,8.13-5.18,13.96-4.46c-0.52,1.28-1.03,2.56-1.55,3.84l-0.3,0.29
					c-10.17,4.98-16.47,10.91-26.12,16.94c7.94-0.69,10.91-3.07,14.21-5.16c10.68,0.28,13.17-4.5,17.17-8.34
					c3.14-1.74,5.83-2.39,7.63-0.83c0.94,3.84-6.31,7.59-9.17,11.38c-4.69,4.7-10.33,8.81-18.76,12.83
					c-5.19,2.48-15.85,4.92-14.3,9.76c-0.4,1.48,2.53,2.21,0.27,4.1c-7.83-0.9-18.39,0.22-20.89-4.63c0.67-0.38,1.18-0.79,1.51-1.22
					l0.25,0.01c1.06,0.06,2.33,0.43,3.14,0.15c8.56-2.99,14.47-7.54,19.5-11.54c4.45-3.53-6.1-0.54-7.57-2.14
					C117.57,205.6,116.36,204.87,115.33,204.07z"/>
				<path class="st4" d="M62.09,217.2c-3.13,1.12-6.32,2.24-3.7,3.78c-10.42,2.67-19.78,4.71-24.47-0.42
					c-2-2.19-11.75-0.18-13.5-3.34c5.98-2.14,11.72,2.06,17.83-3.58C46.1,214.92,50.29,219.27,62.09,217.2z"/>
				<path class="st5" d="M155.68,225.18c-4.48,2.06-6.33,3.56-0.79,4.12c3.83,0.39,8.89-0.03,10.38,2.17
					c-8.47,0.7-17.06,1.57-25.37,2.01c-4.14,0.22-6.39-1.07-5.97-3.42c2.83-0.31,4.71,1.06,8.85-0.45
					c-1.81-1.22-3.31-2.23-4.82-3.24c5.13-0.53,10.27-1.05,15.4-1.58C154.13,224.92,154.9,225.05,155.68,225.18z"/>
				<path class="st6" d="M137.96,226.37c1.5,1.01,3.01,2.02,4.82,3.24c-4.15,1.51-6.02,0.14-8.85,0.45c-6.14,0-6.35-3.59-11.48-4.2
					c2.26-1.89-0.67-2.62-0.27-4.1c4.77,0.7,11.94-1.55,15.85,0.21C135.96,223.86,135.91,225.33,137.96,226.37z"/>
				<path class="st7" d="M93.43,220.23c0.46-0.46,0.92-0.91,1.38-1.37c0.35-0.35,0.82-0.68,1.4-0.97c2.49-0.19,4.99-0.39,7.48-0.58
					c-0.13,0.9-0.26,1.8-0.38,2.7c0,0-0.25-0.01-0.24-0.01c-0.68-0.04-1.4-0.03-2.16,0.03C99.15,219.03,95.84,220.29,93.43,220.23z"
					/>
				<path class="st8" d="M208.01,219.13c1.1-0.86,2.41-1.25,3.94-1.21C210.64,218.32,209.32,218.73,208.01,219.13z"/>
				<path class="st9" d="M100.9,220.04c0.76-0.06,1.48-0.07,2.16-0.03c-0.33,0.44-0.84,0.85-1.51,1.22
					C101.33,220.84,101.12,220.44,100.9,220.04z"/>
				<path class="st10" d="M138.03,221.97c-3.91-1.76-11.08,0.49-15.85-0.21c-1.56-4.84,9.11-7.28,14.3-9.76
					c8.43-4.02,14.06-8.13,18.76-12.83c0.29,0.46,0.59,0.92,0.88,1.38c-6.26,4.16-1.63,5.67,1.17,7.63
					c-0.98,2.61-0.71,6.38,4.9,4.07c8.43-3.47,7.7,0.07,11.01,0.44c0.84,0.18,1.68,0.35,2.52,0.53c-4.16,1.01-9.59,0.34-11.62,4.17
					c-2.54-0.66-3.39-2.95-8.81-0.81C149.36,218.04,144.51,221.65,138.03,221.97z"/>
				<path class="st11" d="M42.73,176.81c7.66-9.8,21.41-17.82,37.79-25.06c3.8,0.24,7.99-1.15,12-1.79
					c10.39-1.64,21.39-4.48,30.36-2.93c-8.89,4-17.83,4.07-26.45,5.24c-9.8,1.33-18.01,4.43-26.08,8.15
					c-4.17,1.93-8.07,4.31-1.69,5.12c-8.58,3.29-17.4,6.46-22.42,11.64C45.07,177.05,43.9,176.93,42.73,176.81z"/>
				<path class="st12" d="M122.88,147.03c-8.98-1.55-19.97,1.28-30.37,2.93c-4.02,0.64-8.2,2.03-12,1.79
					c19.81-7.39,38.63-9.15,56.17-8.5c9.33,0.35,17.61-1.31,26.99-4.53c4.12-1.42,9.53-3.69,11.82-1.36
					c1.87,1.9-3.63,4.03-6.14,5.88c-2.96,2.18-7.1,4.09-10.73,6.12c4.26-6.18,1.97-8.46-11.11-4.13c-4.28,1.42-7.15-0.45-11.45,1.35
					C131.66,146.72,127.27,146.88,122.88,147.03z"/>
				<path class="st12" d="M42.73,176.81c1.17,0.12,2.35,0.25,3.52,0.37c-0.81,1.24-3.38,2.86-1.81,3.62
					c1.69,0.81,3.37-1.06,5.09-1.57c11.57-3.47,18.31-8.64,23.78-14.32c1.13,2.73,0.29,5.12-5.15,8.65
					c-4.44,2.88-11.56,7.29-5.38,10.02c-0.72,0.8-1.44,1.6-2.17,2.4c-4.08,3.33-5.3,0.53-7.92,0.72c-2.59-1.85-10.34,1.31-10.93,0.5
					c-4.43-5.99-5.31,1.54-7.79,1.97C35.34,185.07,37.81,180.96,42.73,176.81z"/>
				<path class="st13" d="M62.09,217.2c-11.8,2.08-15.99-2.28-23.83-3.56c-6.3-6.42,5.13-6.09,12.34-7.36
					c2.72,1.12,11.3-0.84,7.39,3.77c-2.64,0.53-7.37,0.66-7.37,2.02c0,2.52,4.68,2.17,9.61,0.73c2.96,0.8,5.91,1.6,8.87,2.39
					C66.76,215.86,64.43,216.53,62.09,217.2z"/>
				<path class="st14" d="M222.75,156.74c8.23,2.79,12.53,7.44,17.86,11.6c-1.79,3.07,5.3,4.82-2.21,8.74
					c-0.77-0.13-1.54-0.25-2.31-0.37c-2.08-4.32-3.31-8.85-9.62-11.75c-5.61-2.58-9.46-6.14-14.08-9.26
					C217.35,154.61,218.77,156.89,222.75,156.74z"/>
				<path class="st15" d="M198.87,212.49c-8.3,4.19-14.36,2.92-20.65,2.2c2.56-6.71,11.37-5.67,18.45-6.76
					c7.92-2.08,5.69-6.25,11.53-8.76c3.34,0.42-4.61,6.41,5.69,3.4C211.66,206.7,201.89,208.59,198.87,212.49z"/>
				<path class="st16" d="M222.75,156.74c-3.98,0.15-5.4-2.13-10.37-1.04c-3.82-0.68-10.46,0.09-11.23-2.06
					c-2.84-7.99-10.55-1.21-17.19,1.94c-2.37,0.35-4.74,0.7-7.1,1.06c5.47-2.51,10.66-4.99,13.73-8.48
					c2.05-2.33,6.92-4.88,9.37-2.65C205.43,150.46,218.09,151.45,222.75,156.74z"/>
				<path class="st17" d="M33.97,189.15c2.48-0.43,3.35-7.96,7.79-1.97c0.6,0.81,8.34-2.35,10.93-0.5
					c-7.23,2.14-10.82,5.14-4.92,6.34c8.66,1.76,3.81,4.92-1.35,8.56c-0.74-0.04-1.48-0.08-2.21-0.11
					c-3.23-3.33-6.46-6.65-9.73-9.96c-0.01-0.01-0.72,0.26-1.1,0.4C32.37,191.19,32.96,190.2,33.97,189.15z"/>
				<path class="st18" d="M244.43,180.08c-4.22,6.65,9.28,6.95,8.84,12.43c-7.98,3.29-15.09,1.79-22.9,3.2
					c1.15-3.2,13.77-7.88,3.09-9.55c0.44-0.48,0.88-0.95,1.32-1.43l0.05-0.02C241,185.03,241.84,182,244.43,180.08z"/>
				<path class="st19" d="M176.85,156.63c2.37-0.35,4.74-0.7,7.11-1.06c2.78,1.23,10.9-0.57,8.48,3.62
					c-3.14-0.23-6.29,0.59-9.43,1.97c-4.41,1.27-6.16-0.02-8.92-0.57c-3.39-0.68-7.23-2.18-12.55,1.45
					c-0.68-0.09-1.39-0.14-2.14-0.15c-0.6-0.1-1.12-0.24-1.58-0.43c2.08-2.34-0.29-2.88-3.34-3.08c-4.8-0.31-3.23-2.1-0.62-4.17
					l0.75-0.1C159.57,157.21,167.27,157.78,176.85,156.63z"/>
				<path class="st20" d="M46.43,201.59c5.16-3.65,10.01-6.8,1.35-8.56c-5.9-1.2-2.3-4.21,4.92-6.34c2.62-0.19,3.84,2.6,7.92-0.72
					c2.4,1.97-2.56,5.73,1.12,7.39c-0.5,1.31-0.99,2.62-1.49,3.93c-3.2,1.57-6.4,3.13-9.59,4.7
					C49.24,201.85,47.83,201.72,46.43,201.59z"/>
				<path class="st21" d="M233.46,186.15c10.68,1.66-1.94,6.35-3.09,9.55c-6.44,3.48-11.57,7.32-16.94,11.13
					c-3.71,2.64-8.8,4.73-14.56,5.66c3.02-3.9,12.79-5.79,15.02-9.92C223.94,197.64,229.36,192,233.46,186.15z"/>
				<path class="st22" d="M136.05,146.57c4.3-1.8,7.17,0.07,11.46-1.35c13.08-4.33,15.37-2.05,11.11,4.13
					c-1.2,1.49-2.39,2.98-3.58,4.46c-0.74-0.29-1.47-0.57-2.21-0.85C153.11,147.32,138.93,150.32,136.05,146.57z"/>
				<path class="st23" d="M196.67,207.92c-7.08,1.09-15.89,0.05-18.45,6.76c-0.84-0.49-1.67-0.98-2.51-1.47
					c-0.84-0.17-1.68-0.35-2.52-0.53c1.43-5.44,13.1-6.99,18.37-10.98c1.61-0.81,3.22-1.61,4.83-2.42
					c-1.01,2.01-8.08,5.35,1.04,5.07C201.22,204.25,197.78,206.57,196.67,207.92z"/>
				<path class="st24" d="M244.43,180.08c-2.59,1.92-3.42,4.95-9.6,4.62c3.61-2.76,1.06-4.96,3.55-7.62
					c7.52-3.92,0.43-5.67,2.22-8.74C248.5,169.07,249.77,172.98,244.43,180.08z"/>
				<path class="st10" d="M50.65,201.98c3.2-1.57,6.4-3.13,9.59-4.7c4.1,1.35-0.99,6.51,6.95,6.26c-4.66,2.37-4.34,5.17-7.76,7.65
					c-0.48-0.38-0.97-0.77-1.45-1.15c3.91-4.62-4.67-2.65-7.39-3.77C52.8,204.39,55.02,202.51,50.65,201.98z"/>
				<path class="st21" d="M33.38,191.92c0.38-0.14,1.09-0.41,1.1-0.4c3.28,3.31,6.5,6.63,9.73,9.96
					C30.78,202.4,32.44,197.01,33.38,191.92z"/>
				<path class="st25" d="M155.28,216.58c5.42-2.14,6.27,0.15,8.81,0.81c2.5,0.96,6.64,1.57,4.04,4.17
					c-2.87,2.87-8.13,2.74-12.46,3.62c-0.77-0.13-1.54-0.26-2.32-0.39c2.95-1.62,7.37-1.92,9.87-4.07
					C161.36,218.92,159.14,217.33,155.28,216.58z"/>
				<path class="st26" d="M132.2,133.64c-10.39,3.09-17.61,4.72-25.61,3.99C115.84,133.28,122.5,133.95,132.2,133.64z"/>
				<path class="st27" d="M152.82,152.96c0.74,0.28,1.48,0.56,2.21,0.85c0,0.01-0.43,0.3-0.42,0.3c0,0-0.75,0.1-0.75,0.1
					c-0.74,0.02-1.49,0.05-2.24,0.09C152.02,153.86,152.42,153.41,152.82,152.96z"/>
				<path class="st28" d="M61.73,193.35c-3.68-1.66,1.28-5.42-1.12-7.39c0.72-0.8,1.45-1.6,2.17-2.4
					c6.31-6.45,14.18-12.64,22.97-18.67c2.77-1.9,7.58-3.78,4.01-5.56c8.65-2.32,17.15-4.1,25.06-3.62c0,0.66,0.01,1.33,0.02,1.99
					c-2.23,2.24-4.47,4.49-6.7,6.73c-1.57,0.21-3.5,0.73-4.67,0.58c-11.33-1.42-19.32,1.63-22.59,8.71
					c-5.46,3.13-13.7,5.69-13.33,10.05c-4.13,7.47,0.46,9.95,14.59,8.26c2.07-0.25,3.75,0.59,5.6,0.92
					c-0.41,0.57-0.83,1.15-1.24,1.72c0.43,0.35,0.86,0.7,1.28,1.05c-3.15,2.11-6.46,3.79-10.68,3.11c0.18-0.59,0.35-1.18,0.53-1.77
					C67.62,199.24,65.9,195.4,61.73,193.35z"/>
				<path class="st29" d="M132.17,177.57c-5.97,4.79-14.89,9.15-16.19,14.62c-0.35,1.49-3.99,2.59-7.11,2.65
					c3.42-3.82,9.86-7.59,9.29-11.46c2.63-4.11,11.75-7.49,12.84-11.78c6.71-2.02,10.19,0.96,16.77-0.35
					c-0.8-2.07-3.76-2.44-6.78-2.78c0.87-0.83,1.75-1.66,2.62-2.49c0.98,3.16,13.51,0.13,10.77,5.28c-0.32,0.19-0.77,0.37-0.94,0.56
					c-0.14,0.16-0.09,0.41,0.1,0.49c4.82,1.75,14.58-0.19,16.7,3.59c-3.18-1.8-8.29,0.63-12.54,1.18c-0.46-2.46-3.41-3.64-7.96-3.8
					C143.76,173.06,137.14,170.69,132.17,177.57z"/>
				<path class="st30" d="M103.31,220.02c0.13-0.9,0.26-1.8,0.38-2.71c2.16-1.18,6.62-1.5,6.13-3.67c1.16-2.18,2.32-4.35,3.9-7.31
					c-4.53,1.81-7.01,2.81-9.49,3.8c3.15-2.27,3.58-5.83,11.09-6.06c1.03,0.8,2.24,1.53,3.06,2.42c1.47,1.6,12.02-1.39,7.57,2.14
					c-5.04,4-10.94,8.55-19.5,11.54C105.63,220.45,104.36,220.08,103.31,220.02z"/>
				<path class="st31" d="M59.44,211.2c3.42-2.48,3.1-5.28,7.76-7.65c0.5-0.36,1.01-0.73,1.53-1.08c11.38-0.15,2.85,6.68,6.53,9.22
					c-0.3,1.92-2.21,3.14-6.16,3.5c-2.96-0.8-5.91-1.6-8.87-2.39C59.96,212.27,59.7,211.73,59.44,211.2z"/>
				<path class="st32" d="M139.38,185.5c0,0-0.59,0.46-0.59,0.46c-2.47,0.24-4.94,0.49-7.41,0.73c0.33-2.81,0.77-5.63,4.1-8.72
					c5.84-4.55,9.48-1.81,12.87-1.38c4.38,0.56-1.06,2.74-2.57,4.14C144.02,182.36,141.55,183.91,139.38,185.5z"/>
				<path class="st33" d="M86.5,194.66c0.41-0.57,0.83-1.15,1.24-1.72c0.94-0.85,1.88-1.71,2.82-2.56
					c7.64-3.19,8.88-7.54,14.09-11.18c6.94-0.37,7.51,2.99,11.28,4.47c-2.05,2.08-5.86,3.14-9.1,4.52c0.09-0.9,2.1-2.48-0.33-2.51
					c-3.13-0.04-5.1,1.75-7.06,3.05C95.76,191.2,94.36,195.2,86.5,194.66z"/>
				<path class="st34" d="M75.26,211.69c-3.68-2.55,4.85-9.37-6.53-9.23c2.79-1.22,5.58-2.44,8.37-3.65c4.22,0.68,7.53-1,10.68-3.11
					c-2.21,3.75-4.52,7.47-4.27,11C83.69,209.06,80.29,210.86,75.26,211.69z"/>
				<path class="st35" d="M139.38,185.5c2.17-1.59,4.64-3.14,6.4-4.77c1.51-1.39,6.94-3.58,2.57-4.14
					c-3.39-0.43-7.04-3.17-12.87,1.38c-1.1-0.13-2.21-0.27-3.31-0.41c4.97-6.88,11.6-4.51,17.6-4.3c4.54,0.16,7.5,1.35,7.96,3.8
					c-1.46,1.32-2.92,2.65-4.37,3.97C147.51,180.32,145.2,186.19,139.38,185.5z"/>
				<path class="st36" d="M131.38,186.69c2.47-0.24,4.94-0.49,7.41-0.73c-3.02,2.91-6.09,5.82-9.04,8.74
					c-2.72,2.69-6.08,4.43-11.17,4.1C117.97,194.27,130.55,191.07,131.38,186.69z"/>
				<path class="st37" d="M106.84,188.2c3.24-1.39,7.05-2.44,9.09-4.52c0.83-0.31,1.57-0.41,2.23-0.3
					c0.57,3.87-5.86,7.64-9.29,11.46C104.75,193.58,102.46,191.81,106.84,188.2z"/>
				<path class="st38" d="M109.82,213.64c0.49,2.18-3.97,2.49-6.13,3.67c-2.5,0.19-4.99,0.39-7.48,0.58
					c0.31-1.78-2.32-0.28-3.71-0.16c0.46-1.18,1.83-2.09,4.13-2.72C101.22,214.1,107.16,209.93,109.82,213.64z"/>
				<path class="st39" d="M109.82,213.64c-2.66-3.7-8.6,0.46-13.2,1.38c2.39-1.68,3.41-3.79,7.61-4.89c2.48-0.99,4.96-1.99,9.49-3.8
					C112.14,209.28,110.98,211.46,109.82,213.64z"/>
				<path class="st40" d="M92.5,217.74c1.39-0.12,4.02-1.63,3.71,0.16c-0.58,0.29-1.05,0.62-1.4,0.97
					C93.81,218.61,91.59,219.01,92.5,217.74z"/>
				<path class="st41" d="M153.35,181.04c1.46-1.32,2.92-2.65,4.37-3.97c4.25-0.54,9.36-2.98,12.55-1.18
					c8.98,3.4,13.49,2.32,21.16-5.04c1.31-2.32-1.1-3.06-4.23-3.41c-5.69-0.64-6.87-2.79-4.2-6.28c3.14-1.38,6.29-2.2,9.43-1.97
					c7.42,1.4,16.71,1.62,18.97,6.28c-7.35,2.79-7.59,6.87-12.7,10.07c-10.57,5.25-22.62,8.5-34.32,12.24
					c-1.8-1.56-4.5-0.91-7.63,0.83c-3.87-0.25-2.74-2.74-4.96-3.74C152.32,183.6,152.83,182.32,153.35,181.04z"/>
				<path class="st42" d="M164.39,187.79c11.7-3.73,23.75-6.99,34.32-12.23c6.24-1.04,9.78-0.1,11.01,2.52
					c1.25,4.03-2.21,7.04-11.73,8.71c-4.17,0.06-8.34,0.22-12.3,2.81c-7.3,0.72-13.16,3.09-18.83,6.55
					c-2.82,1.72-5.19,4.87-10.76,4.41c-0.29-0.46-0.59-0.92-0.88-1.38C158.09,195.38,165.34,191.63,164.39,187.79z"/>
				<path class="st43" d="M151.8,184.88c2.22,0.99,1.09,3.48,4.96,3.74c-4,3.84-6.49,8.62-17.18,8.34
					c0.01-4.26,8.41-7.81,11.92-11.78L151.8,184.88z"/>
				<path class="st44" d="M151.5,185.17c-3.51,3.97-11.91,7.52-11.92,11.78c-3.3,2.09-6.26,4.47-14.21,5.16
					C135.03,196.09,141.33,190.15,151.5,185.17z"/>
				<path class="st45" d="M155.28,216.58c3.86,0.74,6.08,2.33,7.95,4.13c-2.5,2.15-6.92,2.45-9.87,4.07
					c-5.13,0.52-10.27,1.05-15.4,1.58c-2.05-1.04-1.99-2.51,0.07-4.4C144.51,221.65,149.36,218.04,155.28,216.58z"/>
				<path class="st46" d="M156.11,200.55c5.57,0.46,7.94-2.69,10.76-4.41c5.67-3.47,11.53-5.83,18.83-6.55
					c2.07,1.68-1.52,3.71-3.19,5.62c-5.74,0.76-12.24,0.67-14.76,5.36c-2.25,4.18,6.12,1.45,8.65,2.53
					c-0.9,0.84-1.81,1.68-2.71,2.52c-5.48,0.9-11.46,4.08-16.4,2.56C154.48,206.23,149.85,204.71,156.11,200.55z"/>
				<path class="st47" d="M157.28,208.18c4.94,1.52,10.92-1.66,16.4-2.56c5.96-1.3,11.92-2.61,17.88-3.91
					c-5.26,3.98-16.93,5.54-18.37,10.98c-3.31-0.37-2.58-3.91-11.01-0.44C156.57,214.56,156.31,210.79,157.28,208.18z"/>
				<path class="st48" d="M114.82,155.7c-7.91-0.47-16.41,1.3-25.05,3.62c-6.26,1.59-12.92,2.19-18.52,5.44
					c-0.86,0.26-1.72,0.52-2.59,0.78c-6.38-0.81-2.48-3.19,1.69-5.12c8.07-3.72,16.28-6.82,26.08-8.15
					c8.62-1.17,17.56-1.24,26.45-5.24c4.4-0.15,8.79-0.3,13.18-0.46c2.88,3.74,17.06,0.75,16.77,6.39c-0.4,0.45-0.8,0.9-1.2,1.35
					c-1.62,0.73-3.23,1.46-4.85,2.2C138.66,153.23,128.87,151.95,114.82,155.7z"/>
				<path class="st49" d="M68.66,165.54c0.86-0.26,1.72-0.52,2.59-0.78c0,0,1.13-0.03,1.13-0.03l0.93,0.17
					c-5.48,5.68-12.22,10.86-23.78,14.32c-1.73,0.52-3.41,2.38-5.09,1.57c-1.57-0.75,1-2.37,1.81-3.62
					C51.26,172,60.08,168.83,68.66,165.54z"/>
				<path class="st50" d="M73.31,164.9l-0.93-0.17c0,0-1.13,0.03-1.13,0.03c5.6-3.24,12.26-3.85,18.52-5.44
					c3.56,1.78-1.25,3.67-4.02,5.57c-8.79,6.03-16.66,12.22-22.97,18.67c-6.17-2.72,0.94-7.14,5.38-10.02
					C73.61,170.01,74.44,167.63,73.31,164.9z"/>
				<path class="st51" d="M59.44,211.2c0.26,0.53,0.53,1.07,0.79,1.6c-4.92,1.44-9.6,1.79-9.61-0.73c0-1.36,4.73-1.49,7.37-2.02
					C58.47,210.43,58.95,210.82,59.44,211.2z"/>
				<path class="st52" d="M211.41,165.48c-2.26-4.66-11.55-4.88-18.97-6.28c2.42-4.19-5.7-2.39-8.48-3.62
					c6.64-3.15,14.35-9.93,17.19-1.94c0.76,2.15,7.41,1.39,11.23,2.06c4.62,3.13,8.47,6.68,14.08,9.26
					c6.32,2.9,7.54,7.43,9.62,11.75c-1.78,1.07-3.56,2.14-5.34,3.21c-0.97-0.52-1.94-1.04-2.91-1.56c-0.31-1.75-1.74-2.99-4.87-3.44
					c-0.52-0.48-1.05-0.97-1.57-1.45C218.59,170.58,216.35,167.44,211.41,165.48z"/>
				<path class="st53" d="M230.74,179.93c1.78-1.07,3.56-2.14,5.34-3.21c0.77,0.12,1.54,0.24,2.31,0.37
					c-2.49,2.66,0.05,4.86-3.56,7.62c0,0-0.05,0.02-0.05,0.02C233.44,183.12,232.09,181.52,230.74,179.93z"/>
				<path class="st24" d="M230.74,179.93c1.35,1.6,2.69,3.2,4.04,4.79c-0.44,0.48-0.88,0.95-1.32,1.43
					c-4.1,5.84-9.53,11.48-19.57,16.41c-10.3,3.01-2.35-2.98-5.69-3.4c2.07-2.32,5.78-4.97,5.88-6.9
					c0.27-5.15,6.04-9.51,13.75-13.89C228.8,178.89,229.77,179.41,230.74,179.93z"/>
				<path class="st54" d="M227.83,178.37c-7.71,4.39-13.48,8.74-13.75,13.89c-0.1,1.93-3.81,4.58-5.88,6.9
					c-5.84,2.51-3.61,6.68-11.53,8.76c1.1-1.36,4.54-3.67,0.75-3.56c-9.12,0.28-2.05-3.07-1.04-5.07c2.74-1.61,7.49-3.49,7.87-4.77
					c2.03-6.89,13.41-13.03,18.7-19.6C226.09,175.38,227.52,176.62,227.83,178.37z"/>
				<path class="st55" d="M146.77,156.51c1.62-0.73,3.23-1.47,4.85-2.2c0.75-0.04,1.5-0.07,2.24-0.09
					c-2.61,2.07-4.18,3.86,0.62,4.17c3.04,0.19,5.41,0.74,3.34,3.08c-2.8,0.46-3.13,1.08-1.69,1.79c-4.65,1.46-7.14-0.29-10.97,0.26
					c-5.51,0.8-3.9,1.76-1.53,2.46c-0.87,0.83-1.75,1.66-2.62,2.49c-6.44-2.99-14.86-3.16-26,0.57c-0.42-0.15-0.84-0.3-1.26-0.45
					c1.39-2.65,6.41-5.41,5.31-7.98c0.56-0.36,1.11-0.73,1.63-1.1c0.48-0.07,0.94-0.11,1.38-0.11
					C129.37,160.93,136.64,162.55,146.77,156.51z"/>
				<path class="st56" d="M183.01,161.17c-2.67,3.49-1.49,5.63,4.2,6.28c3.13,0.35,5.54,1.1,4.23,3.41
					c-11.32,2.89-16.49-2.13-27.14-0.09c2.44-1.46,4.88-2.92,8.44-5.04c-7,0.58-8.81-1.71-11.19-3.67
					c5.32-3.62,9.16-2.13,12.55-1.45C176.85,161.14,178.59,162.44,183.01,161.17z"/>
				<path class="st57" d="M161.54,162.04c2.39,1.96,4.19,4.25,11.19,3.67c-3.56,2.13-6,3.59-8.44,5.05c-2.94-0.42-6.3-0.16-9.89,0.5
					c2.74-5.15-9.8-2.12-10.77-5.28c-2.38-0.7-3.98-1.66,1.53-2.46c3.83-0.56,6.32,1.2,10.97-0.26c1.09-0.45,2.18-0.91,3.27-1.36
					C160.15,161.9,160.86,161.95,161.54,162.04z"/>
				<path class="st58" d="M159.4,161.89c-1.09,0.45-2.18,0.91-3.27,1.36c-1.44-0.72-1.1-1.33,1.7-1.79
					C158.27,161.65,158.8,161.8,159.4,161.89z"/>
				<path class="st59" d="M77.1,198.81c-2.79,1.22-5.58,2.44-8.37,3.65c-0.52,0.36-1.03,0.72-1.53,1.08
					c-7.94,0.25-2.86-4.92-6.95-6.27c0.5-1.31,1-2.62,1.49-3.93c4.17,2.05,5.89,5.88,15.89,3.69
					C77.45,197.64,77.28,198.22,77.1,198.81z"/>
				<path class="st60" d="M222.96,174.93c-5.29,6.56-16.67,12.7-18.7,19.6c-0.38,1.28-5.14,3.17-7.87,4.77
					c-1.61,0.81-3.22,1.61-4.83,2.42c-5.96,1.3-11.92,2.61-17.88,3.91c0.9-0.84,1.81-1.68,2.71-2.52c4.86-0.9,9.47-2.28,13.74-4.33
					c11.12-4.3,7.46-8.07,7.86-11.99c9.52-1.67,12.97-4.68,11.73-8.71c3.89-1.53,7.78-3.07,11.66-4.6
					C221.92,173.96,222.44,174.44,222.96,174.93z"/>
				<path class="st61" d="M104.65,179.21c-5.21,3.63-6.45,7.99-14.09,11.18c-0.04-1.44-0.08-2.87-0.13-4.31
					c2.9-2.9,0.41-4.65-0.17-6.8c-3.13-1.85-6.26-3.71-9.39-5.56c3.27-7.08,11.26-10.13,22.59-8.71c1.17,0.15,3.1-0.37,4.67-0.58
					c-0.33,1.22-0.67,2.45-1.01,3.68C100.11,172.77,107.91,175.12,104.65,179.21z"/>
				<path class="st62" d="M80.87,173.71c3.13,1.85,6.26,3.71,9.39,5.56c-5.15-1.06-7.87-0.06-7.77,3.31
					c-3.6,1.9-2.07,5.18-7.51,6.09c-6.97,1.17-5.91-2.34-6.99-4.46c-0.09-0.17-0.3-0.3-0.45-0.44
					C67.17,179.4,75.41,176.85,80.87,173.71z"/>
				<path class="st63" d="M146.77,156.51c-10.13,6.04-17.4,4.42-24.71,2.89c1.18-0.75,2.94-1.6,1.72-2.24
					c-1.54-0.82-3.79-0.6-6.38,0.57c-0.86-0.01-1.71-0.02-2.57-0.03c-0.01-0.66-0.01-1.33-0.02-1.99
					C128.87,151.95,138.66,153.23,146.77,156.51z"/>
				<path class="st64" d="M67.54,183.76c0.15,0.15,0.37,0.28,0.45,0.44c1.08,2.12,0.02,5.63,6.99,4.46
					c5.44-0.91,3.91-4.19,7.51-6.09c-0.04,5.21,0.72,5.55,7.94,3.49c0.04,1.44,0.08,2.87,0.13,4.31c-0.94,0.85-1.88,1.71-2.82,2.56
					c-1.86-0.33-3.53-1.17-5.6-0.92C68,193.71,63.41,191.23,67.54,183.76z"/>
				<path class="st65" d="M114.83,157.69c0.86,0.01,1.71,0.02,2.57,0.03c-0.7,0.85-1.4,1.71-2.11,2.56
					c-2.14,1.31-4.01,2.6-1.95,3.61c-1.26,1.63-2.61,3.23-6.22,4.2c0.34-1.23,0.67-2.45,1.01-3.68
					C110.36,162.18,112.6,159.94,114.83,157.69z"/>
				<path class="st66" d="M107.12,168.1c3.6-0.97,4.96-2.57,6.21-4.2c0.23-0.3,0.63-0.55,1.19-0.74c2.04,1.41-3.88,4.21-0.79,5.43
					c0.42,0.15,0.83,0.3,1.26,0.45c1.16,4.31,10.77,1.62,16.01,2.56c-1.09,4.29-10.2,7.67-12.84,11.78c-0.66-0.11-1.41,0-2.24,0.31
					c-3.76-1.49-4.34-4.85-11.28-4.48C107.91,175.12,100.11,172.77,107.12,168.1z"/>
				<path class="st67" d="M154.4,171.26c3.59-0.66,6.95-0.92,9.89-0.5c10.66-2.04,15.82,2.99,27.14,0.09
					c-7.68,7.36-12.19,8.44-21.17,5.04c-2.12-3.78-11.88-1.83-16.7-3.59c-0.2-0.07-0.24-0.33-0.1-0.49
					C153.63,171.63,154.07,171.44,154.4,171.26z"/>
				<path class="st57" d="M131,171.6c-5.23-0.94-14.84,1.75-16.01-2.56c11.15-3.73,19.56-3.56,26-0.57
					c3.01,0.34,5.98,0.71,6.78,2.78C141.2,172.56,137.71,169.58,131,171.6z"/>
				<path class="st68" d="M221.39,173.48c-3.89,1.53-7.78,3.07-11.66,4.6c-1.23-2.62-4.77-3.56-11.01-2.52
					c5.11-3.2,5.35-7.29,12.7-10.08C216.35,167.44,218.59,170.58,221.39,173.48z"/>
				<path class="st69" d="M198,186.78c-0.4,3.92,3.27,7.69-7.86,11.99c-3.75-0.53-18.06,4.72-7.63-3.57
					c1.67-1.91,5.26-3.94,3.19-5.62C189.66,187.01,193.83,186.85,198,186.78z"/>
				<path class="st70" d="M182.51,195.21c-10.43,8.28,3.88,3.04,7.63,3.57c-4.27,2.05-8.88,3.43-13.74,4.33
					c-2.54-1.08-10.9,1.64-8.65-2.53C170.27,195.88,176.77,195.97,182.51,195.21z"/>
				<path class="st71" d="M115.3,160.28c0.7-0.85,1.4-1.71,2.11-2.56c2.59-1.17,4.85-1.39,6.38-0.57c1.22,0.65-0.54,1.49-1.72,2.24
					c-0.45,0-0.91,0.04-1.38,0.11c-1.17,0.38-2.33,0.77-3.5,1.15l0.07-0.01C116.6,160.53,115.95,160.41,115.3,160.28z"/>
				<path class="st63" d="M113.74,168.59c-3.09-1.22,2.83-4.02,0.79-5.43c0.91-0.84,1.82-1.67,2.73-2.51c0,0-0.07,0.01-0.07,0.01
					c0.57,0.06,1.19,0.05,1.87-0.05C120.15,163.18,115.13,165.94,113.74,168.59z"/>
				<path class="st72" d="M119.05,160.61c-0.68,0.1-1.3,0.11-1.87,0.05c1.17-0.38,2.33-0.77,3.5-1.15
					C120.16,159.88,119.61,160.25,119.05,160.61z"/>
				<path class="st73" d="M90.43,186.08c-7.22,2.06-7.98,1.72-7.94-3.49c-0.1-3.37,2.62-4.37,7.77-3.31
					C90.85,181.43,93.33,183.17,90.43,186.08z"/>
				<path class="st72" d="M117.25,160.65c-0.91,0.84-1.82,1.67-2.73,2.51c-0.56,0.19-0.96,0.44-1.19,0.74
					c-2.06-1.02-0.18-2.31,1.96-3.61C115.95,160.41,116.6,160.53,117.25,160.65z"/>
			</g>
		</g>
		<line class="st74" x1="59.68" y1="33.05" x2="184.59" y2="50.51"/>
		<line class="st74" x1="34.77" y1="86.14" x2="89.1" y2="152.73"/>
		<circle class="st75" cx="59.52" cy="66.3" r="34.86"/>
		<path class="st76" d="M76.75,35.99c-16.63-9.45-37.74-3.72-47.34,12.78c9.11,6.97,19.52,13.87,30.88,20.33
			c10.01,5.69,19.95,10.57,29.45,14.56c0.03-0.05,0.06-0.09,0.09-0.14C99.35,66.79,93.49,45.51,76.75,35.99z"/>
		<line class="st74" x1="53.7" y1="47.59" x2="187.93" y2="97.7"/>
		
			<rect x="51.16" y="45.65" transform="matrix(0.9368 0.3498 -0.3498 0.9368 20.8865 -17.2081)" class="st77" width="13.86" height="7.16"/>
		<line class="st74" x1="40.07" y1="69.55" x2="152.28" y2="159.41"/>
		
			<rect x="36.13" y="68.37" transform="matrix(0.7806 0.6251 -0.6251 0.7806 54.4189 -11.1269)" class="st76" width="13.86" height="7.16"/>
	</g>
</g>
<g id="Layer_1" class="st78">
	<g class="st79">
		<g>
			<path class="st80" d="M102.56,161.68c0-15.04,0-30.08,0-45.12c23.86,0,47.72,0.02,71.58-0.05c1.66,0,2.01,0.33,2,2
				c-0.08,13.74-0.08,27.48,0,41.22c0.01,1.66-0.34,2-2,2C150.28,161.65,126.42,161.68,102.56,161.68z"/>
			<path class="st81" d="M132.85,117.55c1.91,0.03,3.77,0,5.48,0.92c0.52,0.28,1.06,0.4,1.6,0.17c4.46-1.95,8.93-1.02,13.31,0.19
				c10.21,2.82,17.1,8.83,18.72,19.86c0.36,2.47-0.01,4.62-1.34,6.6c-2.58,3.84-5.28,7.6-7.91,11.41c-1.12,1.62-2.68,2.53-4.57,2.89
				c-3.61,0.68-6.89,1.13-10.86-0.07c-3.4-1.03-7.57-2.33-11.77-0.84c-2.84,1-6.2,1.72-9.07,1.7c-4.77-0.03-10.29,0.1-13.04-5.59
				c-1.04-2.15-2.36-4.26-3.96-6.02c-5.03-5.55-3.79-11.38-1-17.27C113.31,121.17,122.63,118.53,132.85,117.55z"/>
			<path class="st82" d="M140.36,139.73c-0.14,0.84-0.16,2.03-1.35,1.99c-1.15-0.03-1.24-1.2-1.28-2.12
				c-0.04-0.9,0.25-1.72,1.34-1.7C140.16,137.94,140.35,138.78,140.36,139.73z"/>
		</g>
	</g>
</g>
</svg>
